# xmcd
#
# Track frame offsets: 
#        150
#        19925
#        37102
#        48681
#        62351
#        76225
#        85926
#        97866
#        110205
#        119872
#        131403
#        144124
#        156476
#        164916
#        174654
#        185698
#        195835
#        209016
#        221908
#        231808
#
# Disc length: 3283 seconds
#
# Revision: 2
# Processed by: cddbd v1.5.2PL0 Copyright (c) Steve Scherf et al.
# Submitted via: ExactAudioCopyFreeDBPlugin 1.0
#
DISCID=2c0cd114
DTITLE=Various Artist - Legends of Country Vol 1 CD 2
DYEAR=1900
DGENRE=Country
TTITLE0=Marty Robbins - El Paso
TTITLE1=Ray Price - For The Good Times
TTITLE2=Sammi Smith - Help Me Make It Through The Night
TTITLE3=Frankie Laine - Cool Water
TTITLE4=George Jones - A Good Year For The Roses
TTITLE5=Johnny Cash - Ballad Of A Teenage Queen
TTITLE6=Donna Fargo - Funny Face
TTITLE7=Freddy Fender - Wasted Days and Wasted Nights
TTITLE8=Glen Campbell - Gentle On My Mind
TTITLE9=Patsy Cline - Walkin' After Midnight
TTITLE10=Roger Miller - The Last Word In Lonesome Is Me
TTITLE11=Sandy Posey - Single Girl
TTITLE12=Waylon Jennings - Jole Blon
TTITLE13=Dave Dudley - Truck Drivin' Son Of A Gun
TTITLE14=Wanda Jackson - Sweet Nothin's
TTITLE15=Jim Reeves - He'll Have To Go
TTITLE16=Tammy Wynette - Stand By Your Man
TTITLE17=Claude King - Wolverton Mountain
TTITLE18=Hank Locklin - Please Help Me I'm Falling
TTITLE19=Loretta Lynn - Coalminer's Daughter
EXTD=Cat: CEL177 Previously released as 4 CD set All Star Country\nCD 
EXTD=2 of 2
EXTT0=
EXTT1=
EXTT2=
EXTT3=
EXTT4=
EXTT5=
EXTT6=
EXTT7=
EXTT8=
EXTT9=
EXTT10=
EXTT11=
EXTT12=
EXTT13=
EXTT14=
EXTT15=
EXTT16=
EXTT17=
EXTT18=
EXTT19=
PLAYORDER=
